<?xml version="1.0" encoding="utf-8" ?>
<svg baseProfile="full" height="128.0" version="1.1" width="1000" xmlns="http://www.w3.org/2000/svg" xmlns:ev="http://www.w3.org/2001/xml-events" xmlns:xlink="http://www.w3.org/1999/xlink"><defs /><g transform="translate(0,70)"><line stroke="#000000" stroke-width="3" x1="0" x2="1000" y1="0" y2="0" /><line stroke="#000000" stroke-width="2" x1="83" x2="83" y1="-5" y2="5" /><text fill="#C0C0C0" font-family="Helevetica" font-size="6pt" stroke="none" text-anchor="end" transform="rotate(180, 83, 0)" writing-mode="tb" x="83" y="-10">okt 06, 2021</text><line stroke="#000000" stroke-width="2" x1="917" x2="917" y1="-5" y2="5" /><text fill="#C0C0C0" font-family="Helevetica" font-size="6pt" stroke="none" text-anchor="end" transform="rotate(180, 917, 0)" writing-mode="tb" x="917" y="-10">mrt 11, 2022</text><line stroke="#000000" stroke-width="2" x1="250" x2="250" y1="-5" y2="5" /><text fill="#C0C0C0" font-family="Helevetica" font-size="6pt" stroke="none" text-anchor="end" transform="rotate(180, 250, 0)" writing-mode="tb" x="250" y="-10">nov 06, 2021</text><line stroke="#000000" stroke-width="2" x1="417" x2="417" y1="-5" y2="5" /><text fill="#C0C0C0" font-family="Helevetica" font-size="6pt" stroke="none" text-anchor="end" transform="rotate(180, 417, 0)" writing-mode="tb" x="417" y="-10">dec 08, 2021</text><line stroke="#000000" stroke-width="2" x1="583" x2="583" y1="-5" y2="5" /><text fill="#C0C0C0" font-family="Helevetica" font-size="6pt" stroke="none" text-anchor="end" transform="rotate(180, 583, 0)" writing-mode="tb" x="583" y="-10">jan 08, 2022</text><line stroke="#000000" stroke-width="2" x1="750" x2="750" y1="-5" y2="5" /><text fill="#C0C0C0" font-family="Helevetica" font-size="6pt" stroke="none" text-anchor="end" transform="rotate(180, 750, 0)" writing-mode="tb" x="750" y="-10">feb 08, 2022</text><path d="M83,0 L83,-15 L73,-15" fill="none" stroke="#0000FF" stroke-width="1" /><text fill="#0000FF" font-family="Helevetica" font-size="6pt" stroke="none" text-anchor="end" x="70" y="-13.5">verzoek datum</text><text fill="#000000" font-family="Helevetica" font-size="6pt" stroke="none" text-anchor="end" transform="rotate(180, 83, 0)" writing-mode="tb" x="83" y="-10">okt 06, 2021</text><circle cx="83" cy="0" fill="white" r="4" stroke="#0000FF" stroke-width="1" /><path d="M121,0 L121,-25 L111,-25" fill="none" stroke="#000000" stroke-width="1" /><text fill="#000000" font-family="Helevetica" font-size="6pt" stroke="none" text-anchor="end" x="108" y="-23.5">ontvangst verzoek bevestigd</text><text fill="#000000" font-family="Helevetica" font-size="6pt" stroke="none" text-anchor="end" transform="rotate(180, 121, 0)" writing-mode="tb" x="121" y="-10">okt 13, 2021</text><circle cx="121" cy="0" fill="white" r="4" stroke="#000000" stroke-width="1" /><path d="M724,0 L724,-15 L714,-15" fill="none" stroke="#000000" stroke-width="1" /><text fill="#000000" font-family="Helevetica" font-size="6pt" stroke="none" text-anchor="end" x="711" y="-13.5">beslistermijn verdaagd</text><text fill="#000000" font-family="Helevetica" font-size="6pt" stroke="none" text-anchor="end" transform="rotate(180, 724, 0)" writing-mode="tb" x="724" y="-10">feb 03, 2022</text><circle cx="724" cy="0" fill="white" r="4" stroke="#000000" stroke-width="1" /><path d="M917,0 L917,-15 L907,-15" fill="none" stroke="#FF0000" stroke-width="1" /><text fill="#FF0000" font-family="Helevetica" font-size="6pt" stroke="none" text-anchor="end" x="904" y="-13.5">besluit datum</text><text fill="#000000" font-family="Helevetica" font-size="6pt" stroke="none" text-anchor="end" transform="rotate(180, 917, 0)" writing-mode="tb" x="917" y="-10">mrt 11, 2022</text><circle cx="917" cy="0" fill="white" r="4" stroke="#FF0000" stroke-width="1" /><path d="M917,0 L917,-25 L907,-25" fill="none" stroke="#0000FF" stroke-width="1" /><text fill="#0000FF" font-family="Helevetica" font-size="6pt" stroke="none" text-anchor="end" x="904" y="-23.5">verzoek datum</text><text fill="#000000" font-family="Helevetica" font-size="6pt" stroke="none" text-anchor="end" transform="rotate(180, 917, 0)" writing-mode="tb" x="917" y="-10">mrt 11, 2022</text><circle cx="917" cy="0" fill="white" r="4" stroke="#0000FF" stroke-width="1" /><path d="M917,0 L917,-35 L907,-35" fill="none" stroke="#000000" stroke-width="1" /><text fill="#000000" font-family="Helevetica" font-size="6pt" stroke="none" text-anchor="end" x="904" y="-33.5">overig</text><text fill="#000000" font-family="Helevetica" font-size="6pt" stroke="none" text-anchor="end" transform="rotate(180, 917, 0)" writing-mode="tb" x="917" y="-10">mrt 11, 2022</text><circle cx="917" cy="0" fill="white" r="4" stroke="#000000" stroke-width="1" /><path d="M917,0 L917,-45 L907,-45" fill="none" stroke="#000000" stroke-width="1" /><text fill="#000000" font-family="Helevetica" font-size="6pt" stroke="none" text-anchor="end" x="904" y="-43.5">contact</text><text fill="#000000" font-family="Helevetica" font-size="6pt" stroke="none" text-anchor="end" transform="rotate(180, 917, 0)" writing-mode="tb" x="917" y="-10">mrt 11, 2022</text><circle cx="917" cy="0" fill="white" r="4" stroke="#000000" stroke-width="1" /></g></svg>